HIERARCHY
ROOT Hips
{
  OFFSET 0 0 0
  CHANNELS 6 Xposition Yposition Zposition Zrotation Yrotation Xrotation
  JOINT LeftThigh
  {
    OFFSET 8.409438 0 -5.917753
    CHANNELS 3 Zrotation Yrotation Xrotation
    JOINT LeftLeg
    {
      OFFSET 0 0 -42.358652
      CHANNELS 3 Zrotation Yrotation Xrotation
      JOINT LeftFoot
      {
        OFFSET 0 0 -39.357303
        CHANNELS 3 Zrotation Yrotation Xrotation
      }
    }
  }
  JOINT RightThigh
  {
    OFFSET -8.409438 0 -5.917753
    CHANNELS 3 Zrotation Yrotation Xrotation
    JOINT RightLeg
    {
      OFFSET 0 0 -42.358652
      CHANNELS 3 Zrotation Yrotation Xrotation
      JOINT RightFoot
      {
        OFFSET 0 0 -39.357303
        CHANNELS 3 Zrotation Yrotation Xrotation
      }
    }
  }
  JOINT SpineLow
  {
    OFFSET 0 0 4.719101
    CHANNELS 3 Zrotation Yrotation Xrotation
    JOINT SpineMid
    {
      OFFSET 0 0 12.899191
      CHANNELS 3 Zrotation Yrotation Xrotation
      JOINT Chest
      {
        OFFSET 0 0 12.899191
        CHANNELS 3 Zrotation Yrotation Xrotation
        JOINT LeftShoulder
        {
          OFFSET 7.550562 1.41573 9.438202
          CHANNELS 3 Zrotation Yrotation Xrotation
          JOINT LeftArm
          {
            OFFSET 9.155056 0 4.247191
            CHANNELS 3 Zrotation Yrotation Xrotation
            JOINT LeftForearm
            {
              OFFSET 0 0 25.771955
              CHANNELS 3 Zrotation Yrotation Xrotation
              JOINT LeftHand
              {
                OFFSET 0 0 25.197169
                CHANNELS 3 Zrotation Yrotation Xrotation
              }
            }
          }
        }
        JOINT RightShoulder
        {
          OFFSET -7.550562 1.41573 9.438202
          CHANNELS 3 Zrotation Yrotation Xrotation
          JOINT RightArm
          {
            OFFSET -9.155056 0 4.247191
            CHANNELS 3 Zrotation Yrotation Xrotation
            JOINT RightForearm
            {
              OFFSET 0 0 -25.771955
              CHANNELS 3 Zrotation Yrotation Xrotation
              JOINT RightHand
              {
                OFFSET 0 0 -25.197169
                CHANNELS 3 Zrotation Yrotation Xrotation
              }
            }
          }
        }
        JOINT Neck
        {
          OFFSET 0 0 15.101124
          CHANNELS 3 Zrotation Yrotation Xrotation
          JOINT Head
          {
            OFFSET 0 0 11.325843
            CHANNELS 3 Zrotation Yrotation Xrotation
            End Site
            {
              OFFSET 0 0 14.157303
            }
          }
        }
      }
    }
  }
}
MOTION
Frames: 10
Frame Time: 0.0
0.0  101.685394  0.0  9.250374  57.340377  -88.282961  -13.562311  -10.460816  -10.307907  -22.56297  16.30425  25.864942  4.628473  3.139318  2.579337  -29.54743  21.379409  -0.907256  -15.765364  12.503705  24.937377  -0.497254  4.283625  -4.461013  0.847353  1.131804  2.224036  2.41953  3.012291  6.121919  2.41953  3.012291  6.121919  26.176172  17.029373  19.82033  166.742922  18.414377  -179.005187  -18.312028  0.091042  127.973863  72.067296  7.641171  -5.082107  30.29232  -1.10284  14.176721  126.593613  36.776691  92.421664  -79.383368  51.564251  -91.62958  87.579424  29.647755  11.80326  -20.153289  -2.042085  -2.941853  -15.123599  -1.436396  -2.276501  
0.0  101.685394  0.0  8.873494  56.799156  -88.534549  -12.892508  -11.235842  -10.123127  -22.619348  16.596357  25.579333  4.620667  3.188445  2.557829  -29.470019  21.278436  -0.855267  -15.439369  12.331666  24.731571  -0.454036  4.246344  -4.407389  0.836905  1.198274  2.2182  2.397022  3.194962  6.108284  2.397022  3.194962  6.108284  25.345378  17.259876  19.945677  166.492293  19.360159  -178.519357  -18.305661  -0.958734  127.439073  71.774393  6.979326  -4.330296  29.694196  -1.104311  14.128393  126.860275  35.459036  91.827618  -79.277689  51.353357  -91.107282  87.516009  29.673239  11.539285  -19.757795  -2.255544  -2.982616  -14.827843  -1.597215  -2.312537  
0.0  101.685394  0.0  8.443667  56.029932  -88.863339  -12.652254  -11.508773  -9.898238  -22.204609  16.542035  25.567396  4.629457  3.210148  2.517678  -29.488024  21.190533  -0.908548  -15.06502  12.115657  24.530356  -0.394518  4.268746  -4.373753  0.774697  1.248415  2.217201  2.231729  3.337668  6.104596  2.231729  3.337668  6.104596  24.777829  17.550202  20.055102  166.325419  20.087227  -178.080124  -18.352675  -1.984539  126.94181  71.671527  6.791522  -4.08774  29.221986  -0.791681  14.091811  127.31794  34.154604  91.183933  -79.168393  51.328717  -90.128751  87.470049  29.694707  11.372547  -19.244736  -2.425758  -3.046301  -14.443897  -1.725435  -2.363634  
0.0  101.685394  0.0  8.136222  55.159823  -89.175758  -12.18768  -11.709559  -9.607036  -21.937699  16.512205  25.525902  4.520353  3.244371  2.417978  -29.758345  21.241543  -1.105108  -13.635352  11.777301  24.606625  -1.008349  4.039435  -4.397781  0.62814  1.300152  2.233599  1.83695  3.492033  6.143922  1.83695  3.492033  6.143922  24.692642  17.884455  20.085323  166.126534  20.654596  -177.672397  -18.397589  -3.084017  126.467464  71.678862  6.631919  -4.093234  29.069837  -0.249645  14.073412  127.834713  33.144758  90.536977  -78.995633  51.20674  -88.939632  87.712534  29.654199  11.335458  -18.553217  -2.551267  -3.142246  -13.926153  -1.820073  -2.436495  
0.0  101.685394  0.0  7.667694  53.955049  -89.757416  -11.254345  -11.921016  -9.125625  -21.772756  16.427384  25.549503  4.481526  3.346555  2.358755  -30.003015  21.316929  -1.321829  -13.072645  11.546899  24.485987  -0.775212  4.097326  -4.382105  0.444297  1.313422  2.262427  1.337296  3.544768  6.213528  1.337295  3.544768  6.213528  24.933366  18.482335  20.15437  166.134099  21.211759  -177.209833  -18.389364  -4.23643  125.997494  71.814358  6.492978  -4.201569  29.199141  0.466775  14.038632  128.344458  32.410874  89.875044  -78.892427  50.885427  -87.831971  88.317662  29.549283  11.400587  -17.656489  -2.541679  -3.26308  -13.254201  -1.813817  -2.522913  
0.0  101.685394  0.0  7.144721  52.529303  -90.440712  -10.147846  -12.119441  -8.662419  -21.696784  16.370149  25.61076  4.592422  3.488613  2.36107  -30.339539  21.391351  -1.630295  -12.294452  11.322211  24.418431  -0.333642  4.117342  -4.389577  0.252587  1.308434  2.298201  0.814785  3.548697  6.30109  0.814785  3.548697  6.30109  25.330634  19.199318  20.089293  166.095742  21.806811  -176.855498  -18.363374  -5.431115  125.521663  72.085785  6.392402  -4.322554  29.382652  1.223106  13.88764  128.781695  31.995513  89.123907  -78.953645  50.383995  -86.923492  89.259032  29.373849  11.516512  -16.806944  -2.400836  -3.387876  -12.617122  -1.709029  -2.608961  
0.0  101.685394  0.0  6.571568  50.840089  -91.180047  -8.740333  -12.41118  -8.091474  -21.507706  16.289648  25.725388  4.563759  3.585984  2.300561  -30.676054  21.410957  -2.056881  -11.637058  11.181433  24.364132  0.1198  4.173321  -4.383943  0.119943  1.305587  2.311357  0.452708  3.553461  6.329955  0.452708  3.553461  6.329955  25.44233  19.803988  20.043698  166.155153  22.433222  -176.440963  -18.300282  -6.72875  124.993878  72.385079  6.272996  -4.435301  29.214305  1.763674  13.71069  129.220194  31.884477  88.260134  -79.133664  49.851624  -86.143797  90.260974  29.328049  11.536936  -15.983307  -2.291118  -3.39029  -11.999021  -1.631034  -2.604461  
0.0  101.685394  0.0  5.886193  48.854727  -92.041739  -7.192131  -12.77573  -7.426739  -21.272337  16.141411  25.808245  4.581441  3.686569  2.291083  -30.776865  21.313853  -2.434832  -10.853541  11.043788  24.360207  0.572573  4.185426  -4.398305  0.102061  1.295826  2.321016  0.403411  3.528451  6.355296  0.403411  3.528451  6.355295  24.965442  20.263705  19.913209  166.280742  23.062912  -175.972029  -18.18427  -8.144741  124.395434  72.85413  6.04671  -4.507221  30.343574  1.535012  13.64482  127.659535  32.212943  87.405294  -79.367296  49.393782  -85.617192  91.084821  29.412627  11.388609  -15.563943  -2.105174  -3.267134  -11.683287  -1.496859  -2.505654  
0.0  101.685394  0.0  5.085012  46.516338  -93.053733  -5.381481  -13.234096  -6.530374  -21.011386  15.838268  25.853496  4.522431  3.796535  2.216479  -30.761628  21.121299  -2.793065  -10.141509  10.963001  24.312859  1.107902  4.230603  -4.364472  0.132704  1.270767  2.30855  0.484077  3.457188  6.322466  0.484077  3.457188  6.322466  24.374169  20.632362  19.975001  166.555929  23.682352  -175.308562  -18.033016  -9.665039  123.77044  73.512608  5.797265  -4.577791  29.312505  1.699939  13.658023  128.091427  32.976942  86.346944  -79.713017  49.02874  -85.458372  91.608606  29.44004  11.16273  -15.010925  -1.990557  -3.064101  -11.26737  -1.418698  -2.348449  
0.0  101.685394  0.0  4.284501  43.827899  -94.169851  -3.490362  -13.662559  -5.43136  -20.73564  15.483532  25.859386  4.666716  3.873355  2.161829  -30.146702  20.865608  -2.850439  -9.242791  10.789215  24.308964  1.10323  4.2035  -4.363729  0.204035  1.255566  2.317864  0.678021  3.408746  6.351397  0.678021  3.408746  6.351397  23.6769  20.895545  19.989134  166.900437  24.28173  -174.445505  -17.859693  -11.318622  123.127461  74.416394  5.611138  -4.743451  28.104895  1.721902  13.572795  128.5678  34.013001  85.193763  -80.187087  48.732682  -85.672843  91.703804  29.314225  10.896008  -14.307184  -1.91192  -2.779738  -10.738347  -1.369776  -2.130781  
